<svg width="172" height="40" viewBox="0 0 172 40" fill="none" xmlns="http://www.w3.org/2000/svg">
  <defs>
    <linearGradient id="bheemGradDark" x1="0%" y1="0%" x2="100%" y2="100%">
      <stop offset="0%" stop-color="#FFCCF2" />
      <stop offset="50%" stop-color="#977DFF" />
      <stop offset="100%" stop-color="#0033FF" />
    </linearGradient>
  </defs>
  <!-- Icon background -->
  <rect x="2" y="2" width="36" height="36" rx="8" fill="url(#bheemGradDark)" />
  <!-- B letter in icon -->
  <path d="M12 10h10c2.5 0 4.5 1.5 4.5 4 0 1.5-0.8 2.7-2 3.3 1.5 0.5 2.5 2 2.5 3.7 0 2.5-2 4-4.5 4H12V10zm4 6h5c0.8 0 1.5-0.6 1.5-1.5s-0.7-1.5-1.5-1.5h-5v3zm0 7h5.5c0.8 0 1.5-0.7 1.5-1.5s-0.7-1.5-1.5-1.5H16v3z" fill="white"/>
  <!-- B - white for dark mode -->
  <path d="M50 10h8c3 0 5 1.5 5 4.2 0 1.5-0.7 2.7-1.8 3.3 1.4 0.6 2.3 2 2.3 3.8 0 2.7-2.2 4.2-5.2 4.2H50V10zm3.5 6h4c1 0 1.8-0.6 1.8-1.7 0-1-0.8-1.6-1.8-1.6h-4v3.3zm0 6.5h4.3c1 0 1.9-0.7 1.9-1.8s-0.9-1.7-1.9-1.7h-4.3v3.5z" fill="#FFFFFF"/>
  <!-- h -->
  <path d="M68 10h3.5v6.5c0.8-1 2-1.5 3.3-1.5 2.5 0 4 1.7 4 4.2v6.3h-3.5v-5.5c0-1.3-0.7-2-1.8-2-1.2 0-2 0.8-2 2.2v5.3H68V10z" fill="#FFFFFF"/>
  <!-- e -->
  <path d="M82 20.8c0-3 2.2-5.3 5.2-5.3 3 0 5 2.2 5 5.5v0.8h-7c0.2 1.3 1.2 2.2 2.7 2.2 1 0 1.8-0.4 2.3-1l2 1.7c-1 1.3-2.6 2-4.5 2-3.2 0-5.7-2.2-5.7-5.9zm3.3-1.3h4c-0.2-1.2-1-2-2-2s-1.8 0.8-2 2z" fill="#FFFFFF"/>
  <!-- e -->
  <path d="M95 20.8c0-3 2.2-5.3 5.2-5.3 3 0 5 2.2 5 5.5v0.8h-7c0.2 1.3 1.2 2.2 2.7 2.2 1 0 1.8-0.4 2.3-1l2 1.7c-1 1.3-2.6 2-4.5 2-3.2 0-5.7-2.2-5.7-5.9zm3.3-1.3h4c-0.2-1.2-1-2-2-2s-1.8 0.8-2 2z" fill="#FFFFFF"/>
  <!-- m -->
  <path d="M108 15.8h3.5v1.5c0.7-1 1.8-1.8 3.3-1.8 1.5 0 2.7 0.7 3.3 1.9 0.8-1.2 2.2-1.9 3.7-1.9 2.5 0 4 1.7 4 4.2v5.8h-3.5v-5.2c0-1.3-0.6-2-1.7-2-1 0-1.8 0.8-1.8 2.1v5.1h-3.5v-5.2c0-1.3-0.6-2-1.7-2-1 0-1.8 0.8-1.8 2.1v5.1H108V15.8z" fill="#FFFFFF"/>
</svg>
