<svg width="64" height="64" viewBox="0 0 64 64" fill="none" xmlns="http://www.w3.org/2000/svg">
  <defs>
    <linearGradient id="bheemLoaderGrad" x1="0%" y1="0%" x2="100%" y2="100%">
      <stop offset="0%" stop-color="#FFCCF2" />
      <stop offset="50%" stop-color="#977DFF" />
      <stop offset="100%" stop-color="#0033FF" />
    </linearGradient>
  </defs>
  <!-- Icon background -->
  <rect x="4" y="4" width="56" height="56" rx="12" fill="url(#bheemLoaderGrad)" />
  <!-- B letter -->
  <path d="M20 16h16c4 0 7 2.5 7 6.5 0 2.5-1.3 4.5-3.2 5.5 2.4 0.8 4 3.2 4 6 0 4-3.2 6.5-7.2 6.5H20V16zm6.5 10h8c1.3 0 2.3-1 2.3-2.5s-1-2.5-2.3-2.5h-8v5zm0 11h9c1.3 0 2.5-1 2.5-2.5s-1.2-2.5-2.5-2.5h-9v5z" fill="white"/>
</svg>
