<svg width="300" height="20" viewBox="0 0 300 20" fill="none" xmlns="http://www.w3.org/2000/svg">
  <defs>
    <linearGradient id="bheemGrad" x1="0%" y1="0%" x2="100%" y2="100%">
      <stop offset="0%" stop-color="#FFCCF2" />
      <stop offset="50%" stop-color="#977DFF" />
      <stop offset="100%" stop-color="#0033FF" />
    </linearGradient>
  </defs>
  <!-- Icon background 20x20 -->
  <rect x="0" y="0" width="20" height="20" rx="5" fill="url(#bheemGrad)" />
  <!-- B letter -->
  <path d="M6 4h5c1.5 0 2.8 1 2.8 2.5 0 1-0.5 1.7-1.2 2 0.9 0.3 1.5 1.2 1.5 2.3 0 1.5-1.2 2.5-2.8 2.5H6V4zm2.5 3.8h2c0.5 0 0.8-0.4 0.8-0.9s-0.3-0.8-0.8-0.8h-2v1.7zm0 4h2.3c0.5 0 0.9-0.4 0.9-1s-0.4-0.8-0.9-0.8H8.5v1.8z" fill="white"/>
  <!-- Bheem text -->
  <path d="M28 5h4c1.8 0 3.2 1 3.2 2.8 0 1-0.5 1.8-1.2 2.2 1 0.4 1.6 1.4 1.6 2.5 0 1.8-1.4 2.8-3.2 2.8h-4.4V5zm2 4h1.6c0.6 0 1.2-0.4 1.2-1s-0.6-1-1.2-1H30v2zm0 4.3h1.8c0.6 0 1.2-0.4 1.2-1s-0.6-1-1.2-1H30v2z" fill="#0033FF"/>
  <path d="M38 5h2v4h3.2V5h2v10.3h-2v-4.3H40v4.3h-2V5z" fill="#0033FF"/>
  <path d="M48 5h6v2h-4v2h3.5v2H50v2.3h4v2H48V5z" fill="#0033FF"/>
  <path d="M57 5h6v2h-4v2h3.5v2H59v2.3h4v2H57V5z" fill="#0033FF"/>
  <path d="M66 5h2.8l2 6.3 2-6.3h2.8v10.3h-2v-7l-2 7h-1.6l-2-7v7h-2V5z" fill="#0033FF"/>
</svg>
